<svg width="40" height="40" viewBox="0 0 40 40" fill="none" xmlns="http://www.w3.org/2000/svg">
<path d="M20 0C8.95536 0 0 8.95536 0 20C0 31.0446 8.95536 40 20 40C31.0446 40 40 31.0446 40 20C40 8.95536 31.0446 0 20 0ZM27.4554 28.2857C25.6429 29.9554 23.1696 30.9375 20.2188 30.9375C15.9464 30.9375 12.25 28.4866 10.4509 24.9152C9.70982 23.4375 9.28571 21.7679 9.28571 20C9.28571 18.2321 9.70982 16.5625 10.4509 15.0848C12.25 11.5089 15.9464 9.05804 20.2188 9.05804C23.1652 9.05804 25.6384 10.1429 27.5357 11.9063L24.4018 15.0446C23.2679 13.9598 21.8259 13.4107 20.2232 13.4107C17.375 13.4107 14.9643 15.3348 14.1027 17.9196C13.8839 18.5759 13.7589 19.2768 13.7589 20C13.7589 20.7232 13.8839 21.4241 14.1027 22.0804C14.9643 24.6652 17.375 26.5893 20.2188 26.5893C21.692 26.5893 22.942 26.2009 23.9196 25.5446C25.0804 24.7679 25.8482 23.6116 26.1027 22.2411H20.2188V18.0089H30.5179C30.6473 18.7277 30.7143 19.4732 30.7143 20.2455C30.7143 23.5804 29.5223 26.3795 27.4554 28.2857Z" fill="#02000F"/>
</svg>
