<svg width="40" height="40" viewBox="0 0 40 40" fill="none" xmlns="http://www.w3.org/2000/svg">
<path d="M22.056 0C24.3059 0.00599986 25.4479 0.0179996 26.4338 0.0459989L26.8218 0.0599985C27.2698 0.0759982 27.7117 0.0959976 28.2457 0.119997C30.3736 0.219995 31.8255 0.555987 33.0995 1.04998C34.4194 1.55796 35.5313 2.24595 36.6433 3.35592C37.6602 4.35569 38.4471 5.56505 38.9492 6.89984C39.4431 8.17381 39.7791 9.62577 39.8791 11.7557C39.9031 12.2877 39.9231 12.7297 39.9391 13.1797L39.9511 13.5677C39.9811 14.5517 39.9931 15.6936 39.9971 17.9436L39.9991 19.4355V22.0555C40.004 23.5143 39.9887 24.973 39.9531 26.4314L39.9411 26.8194C39.9251 27.2694 39.9051 27.7114 39.8811 28.2433C39.7811 30.3733 39.4411 31.8233 38.9492 33.0992C38.4485 34.4347 37.6615 35.6444 36.6433 36.6431C35.6433 37.6598 34.434 38.4466 33.0995 38.9491C31.8255 39.4431 30.3736 39.7791 28.2457 39.8791C27.7712 39.9014 27.2965 39.9214 26.8218 39.9391L26.4338 39.9511C25.4479 39.9791 24.3059 39.9931 22.056 39.9971L20.5641 39.9991H17.9462C16.4868 40.0041 15.0274 39.9888 13.5685 39.9531L13.1805 39.9411C12.7057 39.9231 12.2311 39.9024 11.7566 39.8791C9.62866 39.7791 8.17673 39.4431 6.9008 38.9491C5.56621 38.4478 4.35737 37.6608 3.35898 36.6431C2.34112 35.6437 1.55352 34.4343 1.0511 33.0992C0.557126 31.8253 0.221143 30.3733 0.121148 28.2433C0.0988664 27.7688 0.0788673 27.2941 0.0611508 26.8194L0.0511516 26.4314C0.0142976 24.973 -0.00237005 23.5143 0.00115394 22.0555V17.9436C-0.0044277 16.4848 0.0102398 15.026 0.0451518 13.5677L0.0591511 13.1797C0.0751502 12.7297 0.0951492 12.2877 0.119148 11.7557C0.219143 9.62577 0.555125 8.17581 1.0491 6.89984C1.5513 5.56368 2.34047 4.35395 3.36098 3.35592C4.35911 2.33889 5.56716 1.55194 6.9008 1.04998C8.17673 0.555987 9.62666 0.219995 11.7566 0.119997C12.2885 0.0959976 12.7325 0.0759982 13.1805 0.0599985L13.5685 0.0479987C15.0268 0.0124651 16.4855 -0.00286933 17.9442 0.00199981L22.056 0ZM20.0001 9.99977C17.3481 9.99977 14.8047 11.0533 12.9294 12.9286C11.0542 14.804 10.0006 17.3474 10.0006 19.9995C10.0006 22.6516 11.0542 25.1951 12.9294 27.0704C14.8047 28.9458 17.3481 29.9993 20.0001 29.9993C22.6522 29.9993 25.1956 28.9458 27.0708 27.0704C28.9461 25.1951 29.9996 22.6516 29.9996 19.9995C29.9996 17.3474 28.9461 14.804 27.0708 12.9286C25.1956 11.0533 22.6522 9.99977 20.0001 9.99977ZM20.0001 13.9997C20.788 13.9995 21.5682 14.1546 22.2962 14.456C23.0242 14.7574 23.6856 15.1992 24.2428 15.7563C24.8001 16.3133 25.2421 16.9747 25.5437 17.7026C25.8454 18.4304 26.0007 19.2106 26.0008 19.9985C26.001 20.7864 25.8459 21.5667 25.5445 22.2947C25.2431 23.0226 24.8013 23.6841 24.2443 24.2414C23.6872 24.7986 23.0259 25.2407 22.298 25.5423C21.5702 25.8439 20.79 25.9993 20.0021 25.9994C18.4109 25.9994 16.8849 25.3673 15.7597 24.2421C14.6345 23.1169 14.0024 21.5908 14.0024 19.9995C14.0024 18.4083 14.6345 16.8822 15.7597 15.757C16.8849 14.6318 18.4109 13.9997 20.0021 13.9997M30.5016 6.99984C29.8386 6.99984 29.2027 7.26322 28.7339 7.73205C28.2651 8.20088 28.0017 8.83675 28.0017 9.49978C28.0017 10.1628 28.2651 10.7987 28.7339 11.2675C29.2027 11.7363 29.8386 11.9997 30.5016 11.9997C31.1646 11.9997 31.8005 11.7363 32.2693 11.2675C32.7381 10.7987 33.0015 10.1628 33.0015 9.49978C33.0015 8.83675 32.7381 8.20088 32.2693 7.73205C31.8005 7.26322 31.1646 6.99984 30.5016 6.99984Z" fill="#02000F"/>
</svg>
